<mxfile host="app.diagrams.net" modified="2023-03-26T14:53:26.460Z" agent="Mozilla/5.0 (Windows NT 10.0; Win64; x64) AppleWebKit/537.36 (KHTML, like Gecko) Chrome/111.0.0.0 Safari/537.36 Edg/111.0.1661.51" etag="xhCadpMaDV4OcpUJVnzq" version="21.1.1" type="device">
  <diagram id="C5RBs43oDa-KdzZeNtuy" name="Page-1">
    <mxGraphModel dx="1440" dy="917" grid="1" gridSize="10" guides="1" tooltips="1" connect="1" arrows="1" fold="1" page="1" pageScale="1" pageWidth="1654" pageHeight="1169" math="0" shadow="0">
      <root>
        <mxCell id="WIyWlLk6GJQsqaUBKTNV-0" />
        <mxCell id="WIyWlLk6GJQsqaUBKTNV-1" parent="WIyWlLk6GJQsqaUBKTNV-0" />
        <mxCell id="olz0WFhDpBD9glcPphKf-0" value="GameObject" style="swimlane;fontStyle=1;align=center;verticalAlign=top;childLayout=stackLayout;horizontal=1;startSize=26;horizontalStack=0;resizeParent=1;resizeParentMax=0;resizeLast=0;collapsible=1;marginBottom=0;" parent="WIyWlLk6GJQsqaUBKTNV-1" vertex="1" collapsed="1">
          <mxGeometry x="70" y="310" width="110" height="70" as="geometry">
            <mxRectangle x="27" y="190" width="160" height="424" as="alternateBounds" />
          </mxGeometry>
        </mxCell>
        <mxCell id="olz0WFhDpBD9glcPphKf-1" value="position: PVector" style="text;strokeColor=none;fillColor=none;align=left;verticalAlign=top;spacingLeft=4;spacingRight=4;overflow=hidden;rotatable=0;points=[[0,0.5],[1,0.5]];portConstraint=eastwest;" parent="olz0WFhDpBD9glcPphKf-0" vertex="1">
          <mxGeometry y="26" width="160" height="26" as="geometry" />
        </mxCell>
        <mxCell id="olz0WFhDpBD9glcPphKf-8" value="w: float" style="text;strokeColor=none;fillColor=none;align=left;verticalAlign=top;spacingLeft=4;spacingRight=4;overflow=hidden;rotatable=0;points=[[0,0.5],[1,0.5]];portConstraint=eastwest;" parent="olz0WFhDpBD9glcPphKf-0" vertex="1">
          <mxGeometry y="52" width="160" height="26" as="geometry" />
        </mxCell>
        <mxCell id="olz0WFhDpBD9glcPphKf-9" value="h: float" style="text;strokeColor=none;fillColor=none;align=left;verticalAlign=top;spacingLeft=4;spacingRight=4;overflow=hidden;rotatable=0;points=[[0,0.5],[1,0.5]];portConstraint=eastwest;" parent="olz0WFhDpBD9glcPphKf-0" vertex="1">
          <mxGeometry y="78" width="160" height="26" as="geometry" />
        </mxCell>
        <mxCell id="olz0WFhDpBD9glcPphKf-10" value="tag: String" style="text;strokeColor=none;fillColor=none;align=left;verticalAlign=top;spacingLeft=4;spacingRight=4;overflow=hidden;rotatable=0;points=[[0,0.5],[1,0.5]];portConstraint=eastwest;" parent="olz0WFhDpBD9glcPphKf-0" vertex="1">
          <mxGeometry y="104" width="160" height="26" as="geometry" />
        </mxCell>
        <mxCell id="olz0WFhDpBD9glcPphKf-11" value="image: PImage" style="text;strokeColor=none;fillColor=none;align=left;verticalAlign=top;spacingLeft=4;spacingRight=4;overflow=hidden;rotatable=0;points=[[0,0.5],[1,0.5]];portConstraint=eastwest;" parent="olz0WFhDpBD9glcPphKf-0" vertex="1">
          <mxGeometry y="130" width="160" height="26" as="geometry" />
        </mxCell>
        <mxCell id="olz0WFhDpBD9glcPphKf-12" value="velocity: PVector" style="text;strokeColor=none;fillColor=none;align=left;verticalAlign=top;spacingLeft=4;spacingRight=4;overflow=hidden;rotatable=0;points=[[0,0.5],[1,0.5]];portConstraint=eastwest;" parent="olz0WFhDpBD9glcPphKf-0" vertex="1">
          <mxGeometry y="156" width="160" height="26" as="geometry" />
        </mxCell>
        <mxCell id="olz0WFhDpBD9glcPphKf-13" value="state: State" style="text;strokeColor=none;fillColor=none;align=left;verticalAlign=top;spacingLeft=4;spacingRight=4;overflow=hidden;rotatable=0;points=[[0,0.5],[1,0.5]];portConstraint=eastwest;" parent="olz0WFhDpBD9glcPphKf-0" vertex="1">
          <mxGeometry y="182" width="160" height="26" as="geometry" />
        </mxCell>
        <mxCell id="olz0WFhDpBD9glcPphKf-2" value="" style="line;strokeWidth=1;fillColor=none;align=left;verticalAlign=middle;spacingTop=-1;spacingLeft=3;spacingRight=3;rotatable=0;labelPosition=right;points=[];portConstraint=eastwest;strokeColor=inherit;" parent="olz0WFhDpBD9glcPphKf-0" vertex="1">
          <mxGeometry y="208" width="160" height="8" as="geometry" />
        </mxCell>
        <mxCell id="olz0WFhDpBD9glcPphKf-16" value="getTag(void): String" style="text;strokeColor=none;fillColor=none;align=left;verticalAlign=top;spacingLeft=4;spacingRight=4;overflow=hidden;rotatable=0;points=[[0,0.5],[1,0.5]];portConstraint=eastwest;" parent="olz0WFhDpBD9glcPphKf-0" vertex="1">
          <mxGeometry y="216" width="160" height="26" as="geometry" />
        </mxCell>
        <mxCell id="olz0WFhDpBD9glcPphKf-3" value="getVelocity(void): PVector" style="text;strokeColor=none;fillColor=none;align=left;verticalAlign=top;spacingLeft=4;spacingRight=4;overflow=hidden;rotatable=0;points=[[0,0.5],[1,0.5]];portConstraint=eastwest;" parent="olz0WFhDpBD9glcPphKf-0" vertex="1">
          <mxGeometry y="242" width="160" height="26" as="geometry" />
        </mxCell>
        <mxCell id="olz0WFhDpBD9glcPphKf-14" value="getState(void): State" style="text;strokeColor=none;fillColor=none;align=left;verticalAlign=top;spacingLeft=4;spacingRight=4;overflow=hidden;rotatable=0;points=[[0,0.5],[1,0.5]];portConstraint=eastwest;" parent="olz0WFhDpBD9glcPphKf-0" vertex="1">
          <mxGeometry y="268" width="160" height="26" as="geometry" />
        </mxCell>
        <mxCell id="olz0WFhDpBD9glcPphKf-15" value="setState(State): void" style="text;strokeColor=none;fillColor=none;align=left;verticalAlign=top;spacingLeft=4;spacingRight=4;overflow=hidden;rotatable=0;points=[[0,0.5],[1,0.5]];portConstraint=eastwest;" parent="olz0WFhDpBD9glcPphKf-0" vertex="1">
          <mxGeometry y="294" width="160" height="26" as="geometry" />
        </mxCell>
        <mxCell id="olz0WFhDpBD9glcPphKf-18" value="getImage(void): PImage" style="text;strokeColor=none;fillColor=none;align=left;verticalAlign=top;spacingLeft=4;spacingRight=4;overflow=hidden;rotatable=0;points=[[0,0.5],[1,0.5]];portConstraint=eastwest;" parent="olz0WFhDpBD9glcPphKf-0" vertex="1">
          <mxGeometry y="320" width="160" height="26" as="geometry" />
        </mxCell>
        <mxCell id="olz0WFhDpBD9glcPphKf-17" value="setImage(PImage): void" style="text;strokeColor=none;fillColor=none;align=left;verticalAlign=top;spacingLeft=4;spacingRight=4;overflow=hidden;rotatable=0;points=[[0,0.5],[1,0.5]];portConstraint=eastwest;" parent="olz0WFhDpBD9glcPphKf-0" vertex="1">
          <mxGeometry y="346" width="160" height="26" as="geometry" />
        </mxCell>
        <mxCell id="olz0WFhDpBD9glcPphKf-20" value="update(void): void" style="text;strokeColor=none;fillColor=none;align=left;verticalAlign=top;spacingLeft=4;spacingRight=4;overflow=hidden;rotatable=0;points=[[0,0.5],[1,0.5]];portConstraint=eastwest;" parent="olz0WFhDpBD9glcPphKf-0" vertex="1">
          <mxGeometry y="372" width="160" height="26" as="geometry" />
        </mxCell>
        <mxCell id="olz0WFhDpBD9glcPphKf-19" value="display(void): void" style="text;strokeColor=none;fillColor=none;align=left;verticalAlign=top;spacingLeft=4;spacingRight=4;overflow=hidden;rotatable=0;points=[[0,0.5],[1,0.5]];portConstraint=eastwest;" parent="olz0WFhDpBD9glcPphKf-0" vertex="1">
          <mxGeometry y="398" width="160" height="26" as="geometry" />
        </mxCell>
        <mxCell id="olz0WFhDpBD9glcPphKf-21" value="Character" style="swimlane;fontStyle=1;align=center;verticalAlign=top;childLayout=stackLayout;horizontal=1;startSize=26;horizontalStack=0;resizeParent=1;resizeParentMax=0;resizeLast=0;collapsible=1;marginBottom=0;" parent="WIyWlLk6GJQsqaUBKTNV-1" vertex="1">
          <mxGeometry x="277" y="190" width="170" height="268" as="geometry">
            <mxRectangle x="277" y="190" width="100" height="90" as="alternateBounds" />
          </mxGeometry>
        </mxCell>
        <mxCell id="olz0WFhDpBD9glcPphKf-22" value="coll: Collider" style="text;strokeColor=none;fillColor=none;align=left;verticalAlign=top;spacingLeft=4;spacingRight=4;overflow=hidden;rotatable=0;points=[[0,0.5],[1,0.5]];portConstraint=eastwest;" parent="olz0WFhDpBD9glcPphKf-21" vertex="1">
          <mxGeometry y="26" width="170" height="26" as="geometry" />
        </mxCell>
        <mxCell id="olz0WFhDpBD9glcPphKf-28" value="gravity: float" style="text;strokeColor=none;fillColor=none;align=left;verticalAlign=top;spacingLeft=4;spacingRight=4;overflow=hidden;rotatable=0;points=[[0,0.5],[1,0.5]];portConstraint=eastwest;" parent="olz0WFhDpBD9glcPphKf-21" vertex="1">
          <mxGeometry y="52" width="170" height="26" as="geometry" />
        </mxCell>
        <mxCell id="olz0WFhDpBD9glcPphKf-27" value="isOnGround: boolean" style="text;strokeColor=none;fillColor=none;align=left;verticalAlign=top;spacingLeft=4;spacingRight=4;overflow=hidden;rotatable=0;points=[[0,0.5],[1,0.5]];portConstraint=eastwest;" parent="olz0WFhDpBD9glcPphKf-21" vertex="1">
          <mxGeometry y="78" width="170" height="26" as="geometry" />
        </mxCell>
        <mxCell id="olz0WFhDpBD9glcPphKf-26" value="stateMachine: StateMachine" style="text;strokeColor=none;fillColor=none;align=left;verticalAlign=top;spacingLeft=4;spacingRight=4;overflow=hidden;rotatable=0;points=[[0,0.5],[1,0.5]];portConstraint=eastwest;" parent="olz0WFhDpBD9glcPphKf-21" vertex="1">
          <mxGeometry y="104" width="170" height="26" as="geometry" />
        </mxCell>
        <mxCell id="olz0WFhDpBD9glcPphKf-25" value="animator: Animator" style="text;strokeColor=none;fillColor=none;align=left;verticalAlign=top;spacingLeft=4;spacingRight=4;overflow=hidden;rotatable=0;points=[[0,0.5],[1,0.5]];portConstraint=eastwest;" parent="olz0WFhDpBD9glcPphKf-21" vertex="1">
          <mxGeometry y="130" width="170" height="26" as="geometry" />
        </mxCell>
        <mxCell id="olz0WFhDpBD9glcPphKf-23" value="" style="line;strokeWidth=1;fillColor=none;align=left;verticalAlign=middle;spacingTop=-1;spacingLeft=3;spacingRight=3;rotatable=0;labelPosition=right;points=[];portConstraint=eastwest;strokeColor=inherit;" parent="olz0WFhDpBD9glcPphKf-21" vertex="1">
          <mxGeometry y="156" width="170" height="8" as="geometry" />
        </mxCell>
        <mxCell id="olz0WFhDpBD9glcPphKf-24" value="movement(void): void" style="text;strokeColor=none;fillColor=none;align=left;verticalAlign=top;spacingLeft=4;spacingRight=4;overflow=hidden;rotatable=0;points=[[0,0.5],[1,0.5]];portConstraint=eastwest;" parent="olz0WFhDpBD9glcPphKf-21" vertex="1">
          <mxGeometry y="164" width="170" height="26" as="geometry" />
        </mxCell>
        <mxCell id="olz0WFhDpBD9glcPphKf-31" value="move(void): void" style="text;strokeColor=none;fillColor=none;align=left;verticalAlign=top;spacingLeft=4;spacingRight=4;overflow=hidden;rotatable=0;points=[[0,0.5],[1,0.5]];portConstraint=eastwest;" parent="olz0WFhDpBD9glcPphKf-21" vertex="1">
          <mxGeometry y="190" width="170" height="26" as="geometry" />
        </mxCell>
        <mxCell id="olz0WFhDpBD9glcPphKf-30" value="collisionCheck(void): boolean" style="text;strokeColor=none;fillColor=none;align=left;verticalAlign=top;spacingLeft=4;spacingRight=4;overflow=hidden;rotatable=0;points=[[0,0.5],[1,0.5]];portConstraint=eastwest;" parent="olz0WFhDpBD9glcPphKf-21" vertex="1">
          <mxGeometry y="216" width="170" height="26" as="geometry" />
        </mxCell>
        <mxCell id="olz0WFhDpBD9glcPphKf-29" value="cancelMove(void): void" style="text;strokeColor=none;fillColor=none;align=left;verticalAlign=top;spacingLeft=4;spacingRight=4;overflow=hidden;rotatable=0;points=[[0,0.5],[1,0.5]];portConstraint=eastwest;" parent="olz0WFhDpBD9glcPphKf-21" vertex="1">
          <mxGeometry y="242" width="170" height="26" as="geometry" />
        </mxCell>
        <mxCell id="olz0WFhDpBD9glcPphKf-32" value="Player" style="swimlane;fontStyle=1;align=center;verticalAlign=top;childLayout=stackLayout;horizontal=1;startSize=26;horizontalStack=0;resizeParent=1;resizeParentMax=0;resizeLast=0;collapsible=1;marginBottom=0;" parent="WIyWlLk6GJQsqaUBKTNV-1" vertex="1" collapsed="1">
          <mxGeometry x="1006" y="190" width="80" height="30" as="geometry">
            <mxRectangle x="1494" y="190" width="166" height="320" as="alternateBounds" />
          </mxGeometry>
        </mxCell>
        <mxCell id="olz0WFhDpBD9glcPphKf-33" value="speed: float" style="text;strokeColor=none;fillColor=none;align=left;verticalAlign=top;spacingLeft=4;spacingRight=4;overflow=hidden;rotatable=0;points=[[0,0.5],[1,0.5]];portConstraint=eastwest;" parent="olz0WFhDpBD9glcPphKf-32" vertex="1">
          <mxGeometry y="26" width="166" height="26" as="geometry" />
        </mxCell>
        <mxCell id="olz0WFhDpBD9glcPphKf-39" value="fireRate: int" style="text;strokeColor=none;fillColor=none;align=left;verticalAlign=top;spacingLeft=4;spacingRight=4;overflow=hidden;rotatable=0;points=[[0,0.5],[1,0.5]];portConstraint=eastwest;" parent="olz0WFhDpBD9glcPphKf-32" vertex="1">
          <mxGeometry y="52" width="166" height="26" as="geometry" />
        </mxCell>
        <mxCell id="olz0WFhDpBD9glcPphKf-38" value="fireCnt: int" style="text;strokeColor=none;fillColor=none;align=left;verticalAlign=top;spacingLeft=4;spacingRight=4;overflow=hidden;rotatable=0;points=[[0,0.5],[1,0.5]];portConstraint=eastwest;" parent="olz0WFhDpBD9glcPphKf-32" vertex="1">
          <mxGeometry y="78" width="166" height="26" as="geometry" />
        </mxCell>
        <mxCell id="olz0WFhDpBD9glcPphKf-37" value="readyToFire: boolean" style="text;strokeColor=none;fillColor=none;align=left;verticalAlign=top;spacingLeft=4;spacingRight=4;overflow=hidden;rotatable=0;points=[[0,0.5],[1,0.5]];portConstraint=eastwest;" parent="olz0WFhDpBD9glcPphKf-32" vertex="1">
          <mxGeometry y="104" width="166" height="26" as="geometry" />
        </mxCell>
        <mxCell id="olz0WFhDpBD9glcPphKf-36" value="jumpForce: float" style="text;strokeColor=none;fillColor=none;align=left;verticalAlign=top;spacingLeft=4;spacingRight=4;overflow=hidden;rotatable=0;points=[[0,0.5],[1,0.5]];portConstraint=eastwest;" parent="olz0WFhDpBD9glcPphKf-32" vertex="1">
          <mxGeometry y="130" width="166" height="26" as="geometry" />
        </mxCell>
        <mxCell id="WIId0_cN_ajR0Y17j2c8-78" value="inputManager: InputManager" style="text;strokeColor=none;fillColor=none;align=left;verticalAlign=top;spacingLeft=4;spacingRight=4;overflow=hidden;rotatable=0;points=[[0,0.5],[1,0.5]];portConstraint=eastwest;" parent="olz0WFhDpBD9glcPphKf-32" vertex="1">
          <mxGeometry y="156" width="166" height="26" as="geometry" />
        </mxCell>
        <mxCell id="olz0WFhDpBD9glcPphKf-34" value="" style="line;strokeWidth=1;fillColor=none;align=left;verticalAlign=middle;spacingTop=-1;spacingLeft=3;spacingRight=3;rotatable=0;labelPosition=right;points=[];portConstraint=eastwest;strokeColor=inherit;" parent="olz0WFhDpBD9glcPphKf-32" vertex="1">
          <mxGeometry y="182" width="166" height="8" as="geometry" />
        </mxCell>
        <mxCell id="olz0WFhDpBD9glcPphKf-35" value="movement(void): void" style="text;strokeColor=none;fillColor=none;align=left;verticalAlign=top;spacingLeft=4;spacingRight=4;overflow=hidden;rotatable=0;points=[[0,0.5],[1,0.5]];portConstraint=eastwest;" parent="olz0WFhDpBD9glcPphKf-32" vertex="1">
          <mxGeometry y="190" width="166" height="26" as="geometry" />
        </mxCell>
        <mxCell id="olz0WFhDpBD9glcPphKf-43" value="jump(void): void" style="text;strokeColor=none;fillColor=none;align=left;verticalAlign=top;spacingLeft=4;spacingRight=4;overflow=hidden;rotatable=0;points=[[0,0.5],[1,0.5]];portConstraint=eastwest;" parent="olz0WFhDpBD9glcPphKf-32" vertex="1">
          <mxGeometry y="216" width="166" height="26" as="geometry" />
        </mxCell>
        <mxCell id="olz0WFhDpBD9glcPphKf-42" value="checkFire(void): void" style="text;strokeColor=none;fillColor=none;align=left;verticalAlign=top;spacingLeft=4;spacingRight=4;overflow=hidden;rotatable=0;points=[[0,0.5],[1,0.5]];portConstraint=eastwest;" parent="olz0WFhDpBD9glcPphKf-32" vertex="1">
          <mxGeometry y="242" width="166" height="26" as="geometry" />
        </mxCell>
        <mxCell id="olz0WFhDpBD9glcPphKf-41" value="fire(void): void" style="text;strokeColor=none;fillColor=none;align=left;verticalAlign=top;spacingLeft=4;spacingRight=4;overflow=hidden;rotatable=0;points=[[0,0.5],[1,0.5]];portConstraint=eastwest;" parent="olz0WFhDpBD9glcPphKf-32" vertex="1">
          <mxGeometry y="268" width="166" height="26" as="geometry" />
        </mxCell>
        <mxCell id="olz0WFhDpBD9glcPphKf-40" value="update(void): void" style="text;strokeColor=none;fillColor=none;align=left;verticalAlign=top;spacingLeft=4;spacingRight=4;overflow=hidden;rotatable=0;points=[[0,0.5],[1,0.5]];portConstraint=eastwest;" parent="olz0WFhDpBD9glcPphKf-32" vertex="1">
          <mxGeometry y="294" width="166" height="26" as="geometry" />
        </mxCell>
        <mxCell id="olz0WFhDpBD9glcPphKf-47" value="Enemy" style="swimlane;fontStyle=1;align=center;verticalAlign=top;childLayout=stackLayout;horizontal=1;startSize=26;horizontalStack=0;resizeParent=1;resizeParentMax=0;resizeLast=0;collapsible=1;marginBottom=0;" parent="WIyWlLk6GJQsqaUBKTNV-1" vertex="1" collapsed="1">
          <mxGeometry x="842" y="130" width="90" height="30" as="geometry">
            <mxRectangle x="1240" y="30" width="160" height="138" as="alternateBounds" />
          </mxGeometry>
        </mxCell>
        <mxCell id="olz0WFhDpBD9glcPphKf-49" value="" style="line;strokeWidth=1;fillColor=none;align=left;verticalAlign=middle;spacingTop=-1;spacingLeft=3;spacingRight=3;rotatable=0;labelPosition=right;points=[];portConstraint=eastwest;strokeColor=inherit;" parent="olz0WFhDpBD9glcPphKf-47" vertex="1">
          <mxGeometry y="26" width="160" height="8" as="geometry" />
        </mxCell>
        <mxCell id="olz0WFhDpBD9glcPphKf-50" value="movement(void): void" style="text;strokeColor=none;fillColor=none;align=left;verticalAlign=top;spacingLeft=4;spacingRight=4;overflow=hidden;rotatable=0;points=[[0,0.5],[1,0.5]];portConstraint=eastwest;" parent="olz0WFhDpBD9glcPphKf-47" vertex="1">
          <mxGeometry y="34" width="160" height="26" as="geometry" />
        </mxCell>
        <mxCell id="olz0WFhDpBD9glcPphKf-53" value="isHit(void): boolean" style="text;strokeColor=none;fillColor=none;align=left;verticalAlign=top;spacingLeft=4;spacingRight=4;overflow=hidden;rotatable=0;points=[[0,0.5],[1,0.5]];portConstraint=eastwest;" parent="olz0WFhDpBD9glcPphKf-47" vertex="1">
          <mxGeometry y="60" width="160" height="26" as="geometry" />
        </mxCell>
        <mxCell id="olz0WFhDpBD9glcPphKf-52" value="isDead(void):  void" style="text;strokeColor=none;fillColor=none;align=left;verticalAlign=top;spacingLeft=4;spacingRight=4;overflow=hidden;rotatable=0;points=[[0,0.5],[1,0.5]];portConstraint=eastwest;" parent="olz0WFhDpBD9glcPphKf-47" vertex="1">
          <mxGeometry y="86" width="160" height="26" as="geometry" />
        </mxCell>
        <mxCell id="olz0WFhDpBD9glcPphKf-51" value="update(void): void" style="text;strokeColor=none;fillColor=none;align=left;verticalAlign=top;spacingLeft=4;spacingRight=4;overflow=hidden;rotatable=0;points=[[0,0.5],[1,0.5]];portConstraint=eastwest;" parent="olz0WFhDpBD9glcPphKf-47" vertex="1">
          <mxGeometry y="112" width="160" height="26" as="geometry" />
        </mxCell>
        <mxCell id="olz0WFhDpBD9glcPphKf-60" value="Enemies" style="swimlane;fontStyle=1;align=center;verticalAlign=top;childLayout=stackLayout;horizontal=1;startSize=26;horizontalStack=0;resizeParent=1;resizeParentMax=0;resizeLast=0;collapsible=1;marginBottom=0;" parent="WIyWlLk6GJQsqaUBKTNV-1" vertex="1" collapsed="1">
          <mxGeometry x="996" y="130" width="90" height="30" as="geometry">
            <mxRectangle x="1494" y="30" width="160" height="112" as="alternateBounds" />
          </mxGeometry>
        </mxCell>
        <mxCell id="olz0WFhDpBD9glcPphKf-61" value="enemies: ArrayList&lt;Enemy&gt;" style="text;strokeColor=none;fillColor=none;align=left;verticalAlign=top;spacingLeft=4;spacingRight=4;overflow=hidden;rotatable=0;points=[[0,0.5],[1,0.5]];portConstraint=eastwest;" parent="olz0WFhDpBD9glcPphKf-60" vertex="1">
          <mxGeometry y="26" width="160" height="26" as="geometry" />
        </mxCell>
        <mxCell id="olz0WFhDpBD9glcPphKf-62" value="" style="line;strokeWidth=1;fillColor=none;align=left;verticalAlign=middle;spacingTop=-1;spacingLeft=3;spacingRight=3;rotatable=0;labelPosition=right;points=[];portConstraint=eastwest;strokeColor=inherit;" parent="olz0WFhDpBD9glcPphKf-60" vertex="1">
          <mxGeometry y="52" width="160" height="8" as="geometry" />
        </mxCell>
        <mxCell id="olz0WFhDpBD9glcPphKf-63" value="update(void): void" style="text;strokeColor=none;fillColor=none;align=left;verticalAlign=top;spacingLeft=4;spacingRight=4;overflow=hidden;rotatable=0;points=[[0,0.5],[1,0.5]];portConstraint=eastwest;" parent="olz0WFhDpBD9glcPphKf-60" vertex="1">
          <mxGeometry y="60" width="160" height="26" as="geometry" />
        </mxCell>
        <mxCell id="olz0WFhDpBD9glcPphKf-72" value="display(void): void" style="text;strokeColor=none;fillColor=none;align=left;verticalAlign=top;spacingLeft=4;spacingRight=4;overflow=hidden;rotatable=0;points=[[0,0.5],[1,0.5]];portConstraint=eastwest;" parent="olz0WFhDpBD9glcPphKf-60" vertex="1">
          <mxGeometry y="86" width="160" height="26" as="geometry" />
        </mxCell>
        <mxCell id="olz0WFhDpBD9glcPphKf-64" value="Tile" style="swimlane;fontStyle=1;align=center;verticalAlign=top;childLayout=stackLayout;horizontal=1;startSize=26;horizontalStack=0;resizeParent=1;resizeParentMax=0;resizeLast=0;collapsible=1;marginBottom=0;" parent="WIyWlLk6GJQsqaUBKTNV-1" vertex="1" collapsed="1">
          <mxGeometry x="852" y="520" width="70" height="30" as="geometry">
            <mxRectangle x="1240" y="901" width="160" height="138" as="alternateBounds" />
          </mxGeometry>
        </mxCell>
        <mxCell id="olz0WFhDpBD9glcPphKf-65" value="coll: collider" style="text;strokeColor=none;fillColor=none;align=left;verticalAlign=top;spacingLeft=4;spacingRight=4;overflow=hidden;rotatable=0;points=[[0,0.5],[1,0.5]];portConstraint=eastwest;" parent="olz0WFhDpBD9glcPphKf-64" vertex="1">
          <mxGeometry y="26" width="160" height="26" as="geometry" />
        </mxCell>
        <mxCell id="olz0WFhDpBD9glcPphKf-74" value="row: int" style="text;strokeColor=none;fillColor=none;align=left;verticalAlign=top;spacingLeft=4;spacingRight=4;overflow=hidden;rotatable=0;points=[[0,0.5],[1,0.5]];portConstraint=eastwest;" parent="olz0WFhDpBD9glcPphKf-64" vertex="1">
          <mxGeometry y="52" width="160" height="26" as="geometry" />
        </mxCell>
        <mxCell id="olz0WFhDpBD9glcPphKf-73" value="col: int" style="text;strokeColor=none;fillColor=none;align=left;verticalAlign=top;spacingLeft=4;spacingRight=4;overflow=hidden;rotatable=0;points=[[0,0.5],[1,0.5]];portConstraint=eastwest;" parent="olz0WFhDpBD9glcPphKf-64" vertex="1">
          <mxGeometry y="78" width="160" height="26" as="geometry" />
        </mxCell>
        <mxCell id="olz0WFhDpBD9glcPphKf-66" value="" style="line;strokeWidth=1;fillColor=none;align=left;verticalAlign=middle;spacingTop=-1;spacingLeft=3;spacingRight=3;rotatable=0;labelPosition=right;points=[];portConstraint=eastwest;strokeColor=inherit;" parent="olz0WFhDpBD9glcPphKf-64" vertex="1">
          <mxGeometry y="104" width="160" height="8" as="geometry" />
        </mxCell>
        <mxCell id="olz0WFhDpBD9glcPphKf-67" value="setTile(void): void" style="text;strokeColor=none;fillColor=none;align=left;verticalAlign=top;spacingLeft=4;spacingRight=4;overflow=hidden;rotatable=0;points=[[0,0.5],[1,0.5]];portConstraint=eastwest;" parent="olz0WFhDpBD9glcPphKf-64" vertex="1">
          <mxGeometry y="112" width="160" height="26" as="geometry" />
        </mxCell>
        <mxCell id="olz0WFhDpBD9glcPphKf-68" value="TileMap" style="swimlane;fontStyle=1;align=center;verticalAlign=top;childLayout=stackLayout;horizontal=1;startSize=26;horizontalStack=0;resizeParent=1;resizeParentMax=0;resizeLast=0;collapsible=1;marginBottom=0;" parent="WIyWlLk6GJQsqaUBKTNV-1" vertex="1" collapsed="1">
          <mxGeometry x="1006" y="520" width="80" height="30" as="geometry">
            <mxRectangle x="1494" y="901" width="160" height="268" as="alternateBounds" />
          </mxGeometry>
        </mxCell>
        <mxCell id="olz0WFhDpBD9glcPphKf-69" value="charMap: char[][]" style="text;strokeColor=none;fillColor=none;align=left;verticalAlign=top;spacingLeft=4;spacingRight=4;overflow=hidden;rotatable=0;points=[[0,0.5],[1,0.5]];portConstraint=eastwest;" parent="olz0WFhDpBD9glcPphKf-68" vertex="1">
          <mxGeometry y="26" width="160" height="26" as="geometry" />
        </mxCell>
        <mxCell id="olz0WFhDpBD9glcPphKf-82" value="tileMap: Tile[][]" style="text;strokeColor=none;fillColor=none;align=left;verticalAlign=top;spacingLeft=4;spacingRight=4;overflow=hidden;rotatable=0;points=[[0,0.5],[1,0.5]];portConstraint=eastwest;" parent="olz0WFhDpBD9glcPphKf-68" vertex="1">
          <mxGeometry y="52" width="160" height="26" as="geometry" />
        </mxCell>
        <mxCell id="olz0WFhDpBD9glcPphKf-81" value="rowSize: int" style="text;strokeColor=none;fillColor=none;align=left;verticalAlign=top;spacingLeft=4;spacingRight=4;overflow=hidden;rotatable=0;points=[[0,0.5],[1,0.5]];portConstraint=eastwest;" parent="olz0WFhDpBD9glcPphKf-68" vertex="1">
          <mxGeometry y="78" width="160" height="26" as="geometry" />
        </mxCell>
        <mxCell id="olz0WFhDpBD9glcPphKf-83" value="colSize: int" style="text;strokeColor=none;fillColor=none;align=left;verticalAlign=top;spacingLeft=4;spacingRight=4;overflow=hidden;rotatable=0;points=[[0,0.5],[1,0.5]];portConstraint=eastwest;" parent="olz0WFhDpBD9glcPphKf-68" vertex="1">
          <mxGeometry y="104" width="160" height="26" as="geometry" />
        </mxCell>
        <mxCell id="olz0WFhDpBD9glcPphKf-70" value="" style="line;strokeWidth=1;fillColor=none;align=left;verticalAlign=middle;spacingTop=-1;spacingLeft=3;spacingRight=3;rotatable=0;labelPosition=right;points=[];portConstraint=eastwest;strokeColor=inherit;" parent="olz0WFhDpBD9glcPphKf-68" vertex="1">
          <mxGeometry y="130" width="160" height="8" as="geometry" />
        </mxCell>
        <mxCell id="olz0WFhDpBD9glcPphKf-71" value="makeTileMap(void): void" style="text;strokeColor=none;fillColor=none;align=left;verticalAlign=top;spacingLeft=4;spacingRight=4;overflow=hidden;rotatable=0;points=[[0,0.5],[1,0.5]];portConstraint=eastwest;" parent="olz0WFhDpBD9glcPphKf-68" vertex="1">
          <mxGeometry y="138" width="160" height="26" as="geometry" />
        </mxCell>
        <mxCell id="olz0WFhDpBD9glcPphKf-87" value="getTileMap(void): Tile[][]" style="text;strokeColor=none;fillColor=none;align=left;verticalAlign=top;spacingLeft=4;spacingRight=4;overflow=hidden;rotatable=0;points=[[0,0.5],[1,0.5]];portConstraint=eastwest;" parent="olz0WFhDpBD9glcPphKf-68" vertex="1">
          <mxGeometry y="164" width="160" height="26" as="geometry" />
        </mxCell>
        <mxCell id="olz0WFhDpBD9glcPphKf-86" value="getRowSize(): int" style="text;strokeColor=none;fillColor=none;align=left;verticalAlign=top;spacingLeft=4;spacingRight=4;overflow=hidden;rotatable=0;points=[[0,0.5],[1,0.5]];portConstraint=eastwest;" parent="olz0WFhDpBD9glcPphKf-68" vertex="1">
          <mxGeometry y="190" width="160" height="26" as="geometry" />
        </mxCell>
        <mxCell id="olz0WFhDpBD9glcPphKf-85" value="getColSize(): int" style="text;strokeColor=none;fillColor=none;align=left;verticalAlign=top;spacingLeft=4;spacingRight=4;overflow=hidden;rotatable=0;points=[[0,0.5],[1,0.5]];portConstraint=eastwest;" parent="olz0WFhDpBD9glcPphKf-68" vertex="1">
          <mxGeometry y="216" width="160" height="26" as="geometry" />
        </mxCell>
        <mxCell id="olz0WFhDpBD9glcPphKf-84" value="display(void): void" style="text;strokeColor=none;fillColor=none;align=left;verticalAlign=top;spacingLeft=4;spacingRight=4;overflow=hidden;rotatable=0;points=[[0,0.5],[1,0.5]];portConstraint=eastwest;" parent="olz0WFhDpBD9glcPphKf-68" vertex="1">
          <mxGeometry y="242" width="160" height="26" as="geometry" />
        </mxCell>
        <mxCell id="olz0WFhDpBD9glcPphKf-100" value="State" style="swimlane;fontStyle=0;childLayout=stackLayout;horizontal=1;startSize=26;fillColor=none;horizontalStack=0;resizeParent=1;resizeParentMax=0;resizeLast=0;collapsible=1;marginBottom=0;" parent="WIyWlLk6GJQsqaUBKTNV-1" vertex="1" collapsed="1">
          <mxGeometry x="740" y="300" width="70" height="30" as="geometry">
            <mxRectangle x="980" y="220" width="140" height="156" as="alternateBounds" />
          </mxGeometry>
        </mxCell>
        <mxCell id="olz0WFhDpBD9glcPphKf-101" value="IDLE" style="text;strokeColor=none;fillColor=none;align=left;verticalAlign=top;spacingLeft=4;spacingRight=4;overflow=hidden;rotatable=0;points=[[0,0.5],[1,0.5]];portConstraint=eastwest;" parent="olz0WFhDpBD9glcPphKf-100" vertex="1">
          <mxGeometry y="26" width="140" height="26" as="geometry" />
        </mxCell>
        <mxCell id="olz0WFhDpBD9glcPphKf-102" value="WALK" style="text;strokeColor=none;fillColor=none;align=left;verticalAlign=top;spacingLeft=4;spacingRight=4;overflow=hidden;rotatable=0;points=[[0,0.5],[1,0.5]];portConstraint=eastwest;" parent="olz0WFhDpBD9glcPphKf-100" vertex="1">
          <mxGeometry y="52" width="140" height="26" as="geometry" />
        </mxCell>
        <mxCell id="olz0WFhDpBD9glcPphKf-103" value="JUMP" style="text;strokeColor=none;fillColor=none;align=left;verticalAlign=top;spacingLeft=4;spacingRight=4;overflow=hidden;rotatable=0;points=[[0,0.5],[1,0.5]];portConstraint=eastwest;" parent="olz0WFhDpBD9glcPphKf-100" vertex="1">
          <mxGeometry y="78" width="140" height="26" as="geometry" />
        </mxCell>
        <mxCell id="olz0WFhDpBD9glcPphKf-105" value="FALL" style="text;strokeColor=none;fillColor=none;align=left;verticalAlign=top;spacingLeft=4;spacingRight=4;overflow=hidden;rotatable=0;points=[[0,0.5],[1,0.5]];portConstraint=eastwest;" parent="olz0WFhDpBD9glcPphKf-100" vertex="1">
          <mxGeometry y="104" width="140" height="26" as="geometry" />
        </mxCell>
        <mxCell id="olz0WFhDpBD9glcPphKf-104" value="ATTACK" style="text;strokeColor=none;fillColor=none;align=left;verticalAlign=top;spacingLeft=4;spacingRight=4;overflow=hidden;rotatable=0;points=[[0,0.5],[1,0.5]];portConstraint=eastwest;" parent="olz0WFhDpBD9glcPphKf-100" vertex="1">
          <mxGeometry y="130" width="140" height="26" as="geometry" />
        </mxCell>
        <mxCell id="olz0WFhDpBD9glcPphKf-106" value="StateMachine" style="swimlane;fontStyle=1;align=center;verticalAlign=top;childLayout=stackLayout;horizontal=1;startSize=26;horizontalStack=0;resizeParent=1;resizeParentMax=0;resizeLast=0;collapsible=1;marginBottom=0;" parent="WIyWlLk6GJQsqaUBKTNV-1" vertex="1" collapsed="1">
          <mxGeometry x="560" y="290" width="120" height="30" as="geometry">
            <mxRectangle x="600" y="220" width="160" height="112" as="alternateBounds" />
          </mxGeometry>
        </mxCell>
        <mxCell id="olz0WFhDpBD9glcPphKf-107" value="state: State" style="text;strokeColor=none;fillColor=none;align=left;verticalAlign=top;spacingLeft=4;spacingRight=4;overflow=hidden;rotatable=0;points=[[0,0.5],[1,0.5]];portConstraint=eastwest;" parent="olz0WFhDpBD9glcPphKf-106" vertex="1">
          <mxGeometry y="26" width="160" height="26" as="geometry" />
        </mxCell>
        <mxCell id="olz0WFhDpBD9glcPphKf-110" value="parent: GameObject" style="text;strokeColor=none;fillColor=none;align=left;verticalAlign=top;spacingLeft=4;spacingRight=4;overflow=hidden;rotatable=0;points=[[0,0.5],[1,0.5]];portConstraint=eastwest;" parent="olz0WFhDpBD9glcPphKf-106" vertex="1">
          <mxGeometry y="52" width="160" height="26" as="geometry" />
        </mxCell>
        <mxCell id="olz0WFhDpBD9glcPphKf-108" value="" style="line;strokeWidth=1;fillColor=none;align=left;verticalAlign=middle;spacingTop=-1;spacingLeft=3;spacingRight=3;rotatable=0;labelPosition=right;points=[];portConstraint=eastwest;strokeColor=inherit;" parent="olz0WFhDpBD9glcPphKf-106" vertex="1">
          <mxGeometry y="78" width="160" height="8" as="geometry" />
        </mxCell>
        <mxCell id="olz0WFhDpBD9glcPphKf-109" value="updateState(void): void" style="text;strokeColor=none;fillColor=none;align=left;verticalAlign=top;spacingLeft=4;spacingRight=4;overflow=hidden;rotatable=0;points=[[0,0.5],[1,0.5]];portConstraint=eastwest;" parent="olz0WFhDpBD9glcPphKf-106" vertex="1">
          <mxGeometry y="86" width="160" height="26" as="geometry" />
        </mxCell>
        <mxCell id="olz0WFhDpBD9glcPphKf-111" value="Animation" style="swimlane;fontStyle=1;align=center;verticalAlign=top;childLayout=stackLayout;horizontal=1;startSize=26;horizontalStack=0;resizeParent=1;resizeParentMax=0;resizeLast=0;collapsible=1;marginBottom=0;" parent="WIyWlLk6GJQsqaUBKTNV-1" vertex="1" collapsed="1">
          <mxGeometry x="740" y="368" width="100" height="30" as="geometry">
            <mxRectangle x="980" y="398" width="190" height="502" as="alternateBounds" />
          </mxGeometry>
        </mxCell>
        <mxCell id="olz0WFhDpBD9glcPphKf-112" value="frames: ArrayList&lt;PImage&gt;" style="text;strokeColor=none;fillColor=none;align=left;verticalAlign=top;spacingLeft=4;spacingRight=4;overflow=hidden;rotatable=0;points=[[0,0.5],[1,0.5]];portConstraint=eastwest;" parent="olz0WFhDpBD9glcPphKf-111" vertex="1">
          <mxGeometry y="26" width="190" height="26" as="geometry" />
        </mxCell>
        <mxCell id="olz0WFhDpBD9glcPphKf-118" value="frameNum: int" style="text;strokeColor=none;fillColor=none;align=left;verticalAlign=top;spacingLeft=4;spacingRight=4;overflow=hidden;rotatable=0;points=[[0,0.5],[1,0.5]];portConstraint=eastwest;" parent="olz0WFhDpBD9glcPphKf-111" vertex="1">
          <mxGeometry y="52" width="190" height="26" as="geometry" />
        </mxCell>
        <mxCell id="olz0WFhDpBD9glcPphKf-119" value="frameIdx: int" style="text;strokeColor=none;fillColor=none;align=left;verticalAlign=top;spacingLeft=4;spacingRight=4;overflow=hidden;rotatable=0;points=[[0,0.5],[1,0.5]];portConstraint=eastwest;" parent="olz0WFhDpBD9glcPphKf-111" vertex="1">
          <mxGeometry y="78" width="190" height="26" as="geometry" />
        </mxCell>
        <mxCell id="olz0WFhDpBD9glcPphKf-120" value="loop: boolean" style="text;strokeColor=none;fillColor=none;align=left;verticalAlign=top;spacingLeft=4;spacingRight=4;overflow=hidden;rotatable=0;points=[[0,0.5],[1,0.5]];portConstraint=eastwest;" parent="olz0WFhDpBD9glcPphKf-111" vertex="1">
          <mxGeometry y="104" width="190" height="26" as="geometry" />
        </mxCell>
        <mxCell id="olz0WFhDpBD9glcPphKf-116" value="playSpeed: float" style="text;strokeColor=none;fillColor=none;align=left;verticalAlign=top;spacingLeft=4;spacingRight=4;overflow=hidden;rotatable=0;points=[[0,0.5],[1,0.5]];portConstraint=eastwest;" parent="olz0WFhDpBD9glcPphKf-111" vertex="1">
          <mxGeometry y="130" width="190" height="26" as="geometry" />
        </mxCell>
        <mxCell id="olz0WFhDpBD9glcPphKf-115" value="enterAnimation: boolean" style="text;strokeColor=none;fillColor=none;align=left;verticalAlign=top;spacingLeft=4;spacingRight=4;overflow=hidden;rotatable=0;points=[[0,0.5],[1,0.5]];portConstraint=eastwest;" parent="olz0WFhDpBD9glcPphKf-111" vertex="1">
          <mxGeometry y="156" width="190" height="26" as="geometry" />
        </mxCell>
        <mxCell id="olz0WFhDpBD9glcPphKf-121" value="w: float" style="text;strokeColor=none;fillColor=none;align=left;verticalAlign=top;spacingLeft=4;spacingRight=4;overflow=hidden;rotatable=0;points=[[0,0.5],[1,0.5]];portConstraint=eastwest;" parent="olz0WFhDpBD9glcPphKf-111" vertex="1">
          <mxGeometry y="182" width="190" height="26" as="geometry" />
        </mxCell>
        <mxCell id="olz0WFhDpBD9glcPphKf-122" value="h: float" style="text;strokeColor=none;fillColor=none;align=left;verticalAlign=top;spacingLeft=4;spacingRight=4;overflow=hidden;rotatable=0;points=[[0,0.5],[1,0.5]];portConstraint=eastwest;" parent="olz0WFhDpBD9glcPphKf-111" vertex="1">
          <mxGeometry y="208" width="190" height="26" as="geometry" />
        </mxCell>
        <mxCell id="olz0WFhDpBD9glcPphKf-117" value="filePath: String" style="text;strokeColor=none;fillColor=none;align=left;verticalAlign=top;spacingLeft=4;spacingRight=4;overflow=hidden;rotatable=0;points=[[0,0.5],[1,0.5]];portConstraint=eastwest;" parent="olz0WFhDpBD9glcPphKf-111" vertex="1">
          <mxGeometry y="234" width="190" height="26" as="geometry" />
        </mxCell>
        <mxCell id="olz0WFhDpBD9glcPphKf-113" value="" style="line;strokeWidth=1;fillColor=none;align=left;verticalAlign=middle;spacingTop=-1;spacingLeft=3;spacingRight=3;rotatable=0;labelPosition=right;points=[];portConstraint=eastwest;strokeColor=inherit;" parent="olz0WFhDpBD9glcPphKf-111" vertex="1">
          <mxGeometry y="260" width="190" height="8" as="geometry" />
        </mxCell>
        <mxCell id="olz0WFhDpBD9glcPphKf-114" value="isLoop(void): boolean" style="text;strokeColor=none;fillColor=none;align=left;verticalAlign=top;spacingLeft=4;spacingRight=4;overflow=hidden;rotatable=0;points=[[0,0.5],[1,0.5]];portConstraint=eastwest;" parent="olz0WFhDpBD9glcPphKf-111" vertex="1">
          <mxGeometry y="268" width="190" height="26" as="geometry" />
        </mxCell>
        <mxCell id="olz0WFhDpBD9glcPphKf-124" value="setFrames(void): void" style="text;strokeColor=none;fillColor=none;align=left;verticalAlign=top;spacingLeft=4;spacingRight=4;overflow=hidden;rotatable=0;points=[[0,0.5],[1,0.5]];portConstraint=eastwest;" parent="olz0WFhDpBD9glcPphKf-111" vertex="1">
          <mxGeometry y="294" width="190" height="26" as="geometry" />
        </mxCell>
        <mxCell id="olz0WFhDpBD9glcPphKf-123" value="getFrames(): ArrayList&lt;PImage&gt;" style="text;strokeColor=none;fillColor=none;align=left;verticalAlign=top;spacingLeft=4;spacingRight=4;overflow=hidden;rotatable=0;points=[[0,0.5],[1,0.5]];portConstraint=eastwest;" parent="olz0WFhDpBD9glcPphKf-111" vertex="1">
          <mxGeometry y="320" width="190" height="26" as="geometry" />
        </mxCell>
        <mxCell id="olz0WFhDpBD9glcPphKf-127" value="getFrameNum(): int" style="text;strokeColor=none;fillColor=none;align=left;verticalAlign=top;spacingLeft=4;spacingRight=4;overflow=hidden;rotatable=0;points=[[0,0.5],[1,0.5]];portConstraint=eastwest;" parent="olz0WFhDpBD9glcPphKf-111" vertex="1">
          <mxGeometry y="346" width="190" height="26" as="geometry" />
        </mxCell>
        <mxCell id="olz0WFhDpBD9glcPphKf-126" value="getCurrentFrameIdx(): int" style="text;strokeColor=none;fillColor=none;align=left;verticalAlign=top;spacingLeft=4;spacingRight=4;overflow=hidden;rotatable=0;points=[[0,0.5],[1,0.5]];portConstraint=eastwest;" parent="olz0WFhDpBD9glcPphKf-111" vertex="1">
          <mxGeometry y="372" width="190" height="26" as="geometry" />
        </mxCell>
        <mxCell id="olz0WFhDpBD9glcPphKf-125" value="setCurrentFrameIdx(int): void" style="text;strokeColor=none;fillColor=none;align=left;verticalAlign=top;spacingLeft=4;spacingRight=4;overflow=hidden;rotatable=0;points=[[0,0.5],[1,0.5]];portConstraint=eastwest;" parent="olz0WFhDpBD9glcPphKf-111" vertex="1">
          <mxGeometry y="398" width="190" height="26" as="geometry" />
        </mxCell>
        <mxCell id="olz0WFhDpBD9glcPphKf-130" value="getCurrentFrame(): PImage" style="text;strokeColor=none;fillColor=none;align=left;verticalAlign=top;spacingLeft=4;spacingRight=4;overflow=hidden;rotatable=0;points=[[0,0.5],[1,0.5]];portConstraint=eastwest;" parent="olz0WFhDpBD9glcPphKf-111" vertex="1">
          <mxGeometry y="424" width="190" height="26" as="geometry" />
        </mxCell>
        <mxCell id="olz0WFhDpBD9glcPphKf-129" value="isEnterAnimation(): boolean" style="text;strokeColor=none;fillColor=none;align=left;verticalAlign=top;spacingLeft=4;spacingRight=4;overflow=hidden;rotatable=0;points=[[0,0.5],[1,0.5]];portConstraint=eastwest;" parent="olz0WFhDpBD9glcPphKf-111" vertex="1">
          <mxGeometry y="450" width="190" height="26" as="geometry" />
        </mxCell>
        <mxCell id="olz0WFhDpBD9glcPphKf-128" value="updateFrameIdx(): void" style="text;strokeColor=none;fillColor=none;align=left;verticalAlign=top;spacingLeft=4;spacingRight=4;overflow=hidden;rotatable=0;points=[[0,0.5],[1,0.5]];portConstraint=eastwest;" parent="olz0WFhDpBD9glcPphKf-111" vertex="1">
          <mxGeometry y="476" width="190" height="26" as="geometry" />
        </mxCell>
        <mxCell id="olz0WFhDpBD9glcPphKf-131" value="Animator" style="swimlane;fontStyle=1;align=center;verticalAlign=top;childLayout=stackLayout;horizontal=1;startSize=26;horizontalStack=0;resizeParent=1;resizeParentMax=0;resizeLast=0;collapsible=1;marginBottom=0;" parent="WIyWlLk6GJQsqaUBKTNV-1" vertex="1" collapsed="1">
          <mxGeometry x="560" y="368" width="90" height="30" as="geometry">
            <mxRectangle x="600" y="398" width="310" height="216" as="alternateBounds" />
          </mxGeometry>
        </mxCell>
        <mxCell id="olz0WFhDpBD9glcPphKf-132" value="parent: GameObject" style="text;strokeColor=none;fillColor=none;align=left;verticalAlign=top;spacingLeft=4;spacingRight=4;overflow=hidden;rotatable=0;points=[[0,0.5],[1,0.5]];portConstraint=eastwest;" parent="olz0WFhDpBD9glcPphKf-131" vertex="1">
          <mxGeometry y="26" width="310" height="26" as="geometry" />
        </mxCell>
        <mxCell id="olz0WFhDpBD9glcPphKf-137" value="animations: HashMap&lt;State, Animation&gt;" style="text;strokeColor=none;fillColor=none;align=left;verticalAlign=top;spacingLeft=4;spacingRight=4;overflow=hidden;rotatable=0;points=[[0,0.5],[1,0.5]];portConstraint=eastwest;" parent="olz0WFhDpBD9glcPphKf-131" vertex="1">
          <mxGeometry y="52" width="310" height="26" as="geometry" />
        </mxCell>
        <mxCell id="olz0WFhDpBD9glcPphKf-136" value="baseFilePath: String" style="text;strokeColor=none;fillColor=none;align=left;verticalAlign=top;spacingLeft=4;spacingRight=4;overflow=hidden;rotatable=0;points=[[0,0.5],[1,0.5]];portConstraint=eastwest;" parent="olz0WFhDpBD9glcPphKf-131" vertex="1">
          <mxGeometry y="78" width="310" height="26" as="geometry" />
        </mxCell>
        <mxCell id="olz0WFhDpBD9glcPphKf-135" value="currentAnimationState: State" style="text;strokeColor=none;fillColor=none;align=left;verticalAlign=top;spacingLeft=4;spacingRight=4;overflow=hidden;rotatable=0;points=[[0,0.5],[1,0.5]];portConstraint=eastwest;" parent="olz0WFhDpBD9glcPphKf-131" vertex="1">
          <mxGeometry y="104" width="310" height="26" as="geometry" />
        </mxCell>
        <mxCell id="olz0WFhDpBD9glcPphKf-133" value="" style="line;strokeWidth=1;fillColor=none;align=left;verticalAlign=middle;spacingTop=-1;spacingLeft=3;spacingRight=3;rotatable=0;labelPosition=right;points=[];portConstraint=eastwest;strokeColor=inherit;" parent="olz0WFhDpBD9glcPphKf-131" vertex="1">
          <mxGeometry y="130" width="310" height="8" as="geometry" />
        </mxCell>
        <mxCell id="olz0WFhDpBD9glcPphKf-134" value="setAnimation(State, String, int, float, float, boolean): void" style="text;strokeColor=none;fillColor=none;align=left;verticalAlign=top;spacingLeft=4;spacingRight=4;overflow=hidden;rotatable=0;points=[[0,0.5],[1,0.5]];portConstraint=eastwest;" parent="olz0WFhDpBD9glcPphKf-131" vertex="1">
          <mxGeometry y="138" width="310" height="26" as="geometry" />
        </mxCell>
        <mxCell id="olz0WFhDpBD9glcPphKf-139" value="getAnimation(State): Animation" style="text;strokeColor=none;fillColor=none;align=left;verticalAlign=top;spacingLeft=4;spacingRight=4;overflow=hidden;rotatable=0;points=[[0,0.5],[1,0.5]];portConstraint=eastwest;" parent="olz0WFhDpBD9glcPphKf-131" vertex="1">
          <mxGeometry y="164" width="310" height="26" as="geometry" />
        </mxCell>
        <mxCell id="olz0WFhDpBD9glcPphKf-138" value="playAnimation(void): void" style="text;strokeColor=none;fillColor=none;align=left;verticalAlign=top;spacingLeft=4;spacingRight=4;overflow=hidden;rotatable=0;points=[[0,0.5],[1,0.5]];portConstraint=eastwest;" parent="olz0WFhDpBD9glcPphKf-131" vertex="1">
          <mxGeometry y="190" width="310" height="26" as="geometry" />
        </mxCell>
        <mxCell id="CaDb665-S-PONLKA3MEE-1" value="Collider" style="swimlane;fontStyle=1;align=center;verticalAlign=top;childLayout=stackLayout;horizontal=1;startSize=26;horizontalStack=0;resizeParent=1;resizeParentMax=0;resizeLast=0;collapsible=1;marginBottom=0;" parent="WIyWlLk6GJQsqaUBKTNV-1" vertex="1" collapsed="1">
          <mxGeometry x="560" y="450" width="90" height="30" as="geometry">
            <mxRectangle x="600" y="650" width="220" height="424" as="alternateBounds" />
          </mxGeometry>
        </mxCell>
        <mxCell id="CaDb665-S-PONLKA3MEE-2" value="position: PVector" style="text;strokeColor=none;fillColor=none;align=left;verticalAlign=top;spacingLeft=4;spacingRight=4;overflow=hidden;rotatable=0;points=[[0,0.5],[1,0.5]];portConstraint=eastwest;" parent="CaDb665-S-PONLKA3MEE-1" vertex="1">
          <mxGeometry y="26" width="220" height="26" as="geometry" />
        </mxCell>
        <mxCell id="CaDb665-S-PONLKA3MEE-6" value="topLeft: PVector" style="text;strokeColor=none;fillColor=none;align=left;verticalAlign=top;spacingLeft=4;spacingRight=4;overflow=hidden;rotatable=0;points=[[0,0.5],[1,0.5]];portConstraint=eastwest;" parent="CaDb665-S-PONLKA3MEE-1" vertex="1">
          <mxGeometry y="52" width="220" height="26" as="geometry" />
        </mxCell>
        <mxCell id="CaDb665-S-PONLKA3MEE-5" value="topRight: PVector" style="text;strokeColor=none;fillColor=none;align=left;verticalAlign=top;spacingLeft=4;spacingRight=4;overflow=hidden;rotatable=0;points=[[0,0.5],[1,0.5]];portConstraint=eastwest;" parent="CaDb665-S-PONLKA3MEE-1" vertex="1">
          <mxGeometry y="78" width="220" height="26" as="geometry" />
        </mxCell>
        <mxCell id="CaDb665-S-PONLKA3MEE-8" value="bottomLeft: PVector" style="text;strokeColor=none;fillColor=none;align=left;verticalAlign=top;spacingLeft=4;spacingRight=4;overflow=hidden;rotatable=0;points=[[0,0.5],[1,0.5]];portConstraint=eastwest;" parent="CaDb665-S-PONLKA3MEE-1" vertex="1">
          <mxGeometry y="104" width="220" height="26" as="geometry" />
        </mxCell>
        <mxCell id="CaDb665-S-PONLKA3MEE-7" value="bottomRight: PVector" style="text;strokeColor=none;fillColor=none;align=left;verticalAlign=top;spacingLeft=4;spacingRight=4;overflow=hidden;rotatable=0;points=[[0,0.5],[1,0.5]];portConstraint=eastwest;" parent="CaDb665-S-PONLKA3MEE-1" vertex="1">
          <mxGeometry y="130" width="220" height="26" as="geometry" />
        </mxCell>
        <mxCell id="CaDb665-S-PONLKA3MEE-10" value="topMid: PVector" style="text;strokeColor=none;fillColor=none;align=left;verticalAlign=top;spacingLeft=4;spacingRight=4;overflow=hidden;rotatable=0;points=[[0,0.5],[1,0.5]];portConstraint=eastwest;" parent="CaDb665-S-PONLKA3MEE-1" vertex="1">
          <mxGeometry y="156" width="220" height="26" as="geometry" />
        </mxCell>
        <mxCell id="CaDb665-S-PONLKA3MEE-9" value="bottomMid: PVector" style="text;strokeColor=none;fillColor=none;align=left;verticalAlign=top;spacingLeft=4;spacingRight=4;overflow=hidden;rotatable=0;points=[[0,0.5],[1,0.5]];portConstraint=eastwest;" parent="CaDb665-S-PONLKA3MEE-1" vertex="1">
          <mxGeometry y="182" width="220" height="26" as="geometry" />
        </mxCell>
        <mxCell id="CaDb665-S-PONLKA3MEE-13" value="leftMid: PVector" style="text;strokeColor=none;fillColor=none;align=left;verticalAlign=top;spacingLeft=4;spacingRight=4;overflow=hidden;rotatable=0;points=[[0,0.5],[1,0.5]];portConstraint=eastwest;" parent="CaDb665-S-PONLKA3MEE-1" vertex="1">
          <mxGeometry y="208" width="220" height="26" as="geometry" />
        </mxCell>
        <mxCell id="CaDb665-S-PONLKA3MEE-12" value="rightMid: PVector" style="text;strokeColor=none;fillColor=none;align=left;verticalAlign=top;spacingLeft=4;spacingRight=4;overflow=hidden;rotatable=0;points=[[0,0.5],[1,0.5]];portConstraint=eastwest;" parent="CaDb665-S-PONLKA3MEE-1" vertex="1">
          <mxGeometry y="234" width="220" height="26" as="geometry" />
        </mxCell>
        <mxCell id="CaDb665-S-PONLKA3MEE-11" value="points: PVector[]" style="text;strokeColor=none;fillColor=none;align=left;verticalAlign=top;spacingLeft=4;spacingRight=4;overflow=hidden;rotatable=0;points=[[0,0.5],[1,0.5]];portConstraint=eastwest;" parent="CaDb665-S-PONLKA3MEE-1" vertex="1">
          <mxGeometry y="260" width="220" height="26" as="geometry" />
        </mxCell>
        <mxCell id="CaDb665-S-PONLKA3MEE-3" value="" style="line;strokeWidth=1;fillColor=none;align=left;verticalAlign=middle;spacingTop=-1;spacingLeft=3;spacingRight=3;rotatable=0;labelPosition=right;points=[];portConstraint=eastwest;strokeColor=inherit;" parent="CaDb665-S-PONLKA3MEE-1" vertex="1">
          <mxGeometry y="286" width="220" height="8" as="geometry" />
        </mxCell>
        <mxCell id="CaDb665-S-PONLKA3MEE-4" value="setPoints(float, float, float, float): void" style="text;strokeColor=none;fillColor=none;align=left;verticalAlign=top;spacingLeft=4;spacingRight=4;overflow=hidden;rotatable=0;points=[[0,0.5],[1,0.5]];portConstraint=eastwest;" parent="CaDb665-S-PONLKA3MEE-1" vertex="1">
          <mxGeometry y="294" width="220" height="26" as="geometry" />
        </mxCell>
        <mxCell id="CaDb665-S-PONLKA3MEE-15" value="collideWith(Collider): boolean" style="text;strokeColor=none;fillColor=none;align=left;verticalAlign=top;spacingLeft=4;spacingRight=4;overflow=hidden;rotatable=0;points=[[0,0.5],[1,0.5]];portConstraint=eastwest;" parent="CaDb665-S-PONLKA3MEE-1" vertex="1">
          <mxGeometry y="320" width="220" height="26" as="geometry" />
        </mxCell>
        <mxCell id="CaDb665-S-PONLKA3MEE-14" value="collidePoint(PVector): boolean" style="text;strokeColor=none;fillColor=none;align=left;verticalAlign=top;spacingLeft=4;spacingRight=4;overflow=hidden;rotatable=0;points=[[0,0.5],[1,0.5]];portConstraint=eastwest;" parent="CaDb665-S-PONLKA3MEE-1" vertex="1">
          <mxGeometry y="346" width="220" height="26" as="geometry" />
        </mxCell>
        <mxCell id="CaDb665-S-PONLKA3MEE-17" value="move(float, float): void" style="text;strokeColor=none;fillColor=none;align=left;verticalAlign=top;spacingLeft=4;spacingRight=4;overflow=hidden;rotatable=0;points=[[0,0.5],[1,0.5]];portConstraint=eastwest;" parent="CaDb665-S-PONLKA3MEE-1" vertex="1">
          <mxGeometry y="372" width="220" height="26" as="geometry" />
        </mxCell>
        <mxCell id="CaDb665-S-PONLKA3MEE-16" value="moveTo(float, float): void" style="text;strokeColor=none;fillColor=none;align=left;verticalAlign=top;spacingLeft=4;spacingRight=4;overflow=hidden;rotatable=0;points=[[0,0.5],[1,0.5]];portConstraint=eastwest;" parent="CaDb665-S-PONLKA3MEE-1" vertex="1">
          <mxGeometry y="398" width="220" height="26" as="geometry" />
        </mxCell>
        <mxCell id="WIId0_cN_ajR0Y17j2c8-3" value="Extends" style="endArrow=block;endSize=16;endFill=0;html=1;rounded=1;exitX=0;exitY=0;exitDx=0;exitDy=0;entryX=1;entryY=0;entryDx=0;entryDy=0;" parent="WIyWlLk6GJQsqaUBKTNV-1" source="olz0WFhDpBD9glcPphKf-21" target="olz0WFhDpBD9glcPphKf-0" edge="1">
          <mxGeometry width="160" relative="1" as="geometry">
            <mxPoint x="267" y="140" as="sourcePoint" />
            <mxPoint x="427" y="140" as="targetPoint" />
            <Array as="points">
              <mxPoint x="230" y="190" />
              <mxPoint x="230" y="310" />
            </Array>
          </mxGeometry>
        </mxCell>
        <mxCell id="WIId0_cN_ajR0Y17j2c8-6" value="1" style="endArrow=open;html=1;endSize=12;startArrow=diamondThin;startSize=14;startFill=1;edgeStyle=orthogonalEdgeStyle;align=left;verticalAlign=bottom;rounded=1;entryX=1;entryY=0;entryDx=0;entryDy=0;exitX=0;exitY=0;exitDx=0;exitDy=0;" parent="WIyWlLk6GJQsqaUBKTNV-1" source="olz0WFhDpBD9glcPphKf-60" target="olz0WFhDpBD9glcPphKf-47" edge="1">
          <mxGeometry x="-1" y="3" relative="1" as="geometry">
            <mxPoint x="962" y="170" as="sourcePoint" />
            <mxPoint x="1122" y="170" as="targetPoint" />
            <Array as="points">
              <mxPoint x="982" y="130" />
              <mxPoint x="982" y="130" />
            </Array>
          </mxGeometry>
        </mxCell>
        <mxCell id="WIId0_cN_ajR0Y17j2c8-7" value="Extends" style="endArrow=block;endSize=16;endFill=0;html=1;rounded=1;entryX=1;entryY=0;entryDx=0;entryDy=0;exitX=0;exitY=0;exitDx=0;exitDy=0;" parent="WIyWlLk6GJQsqaUBKTNV-1" source="olz0WFhDpBD9glcPphKf-47" target="olz0WFhDpBD9glcPphKf-21" edge="1">
          <mxGeometry width="160" relative="1" as="geometry">
            <mxPoint x="527" y="170" as="sourcePoint" />
            <mxPoint x="717" y="260" as="targetPoint" />
            <Array as="points">
              <mxPoint x="447" y="130" />
            </Array>
          </mxGeometry>
        </mxCell>
        <mxCell id="WIId0_cN_ajR0Y17j2c8-8" value="Extends" style="endArrow=block;endSize=16;endFill=0;html=1;rounded=1;entryX=1;entryY=0;entryDx=0;entryDy=0;exitX=0;exitY=0;exitDx=0;exitDy=0;" parent="WIyWlLk6GJQsqaUBKTNV-1" source="olz0WFhDpBD9glcPphKf-32" target="olz0WFhDpBD9glcPphKf-21" edge="1">
          <mxGeometry width="160" relative="1" as="geometry">
            <mxPoint x="697" y="420" as="sourcePoint" />
            <mxPoint x="777" y="290" as="targetPoint" />
          </mxGeometry>
        </mxCell>
        <mxCell id="WIId0_cN_ajR0Y17j2c8-9" value="Extends" style="endArrow=block;endSize=16;endFill=0;html=1;rounded=1;exitX=0;exitY=0;exitDx=0;exitDy=0;entryX=1;entryY=0.5;entryDx=0;entryDy=0;" parent="WIyWlLk6GJQsqaUBKTNV-1" source="olz0WFhDpBD9glcPphKf-64" target="olz0WFhDpBD9glcPphKf-0" edge="1">
          <mxGeometry width="160" relative="1" as="geometry">
            <mxPoint x="387" y="520" as="sourcePoint" />
            <mxPoint x="547" y="520" as="targetPoint" />
            <Array as="points">
              <mxPoint x="820" y="520" />
              <mxPoint x="230" y="520" />
              <mxPoint x="230" y="345" />
            </Array>
          </mxGeometry>
        </mxCell>
        <mxCell id="WIId0_cN_ajR0Y17j2c8-13" value="" style="endArrow=diamondThin;endFill=0;endSize=24;html=1;rounded=1;entryX=1;entryY=0.5;entryDx=0;entryDy=0;exitX=0;exitY=0;exitDx=0;exitDy=0;" parent="WIyWlLk6GJQsqaUBKTNV-1" source="CaDb665-S-PONLKA3MEE-1" target="olz0WFhDpBD9glcPphKf-22" edge="1">
          <mxGeometry width="160" relative="1" as="geometry">
            <mxPoint x="487" y="259.99999999999994" as="sourcePoint" />
            <mxPoint x="647" y="259.99999999999994" as="targetPoint" />
            <Array as="points">
              <mxPoint x="507" y="450" />
              <mxPoint x="507" y="229" />
            </Array>
          </mxGeometry>
        </mxCell>
        <mxCell id="WIId0_cN_ajR0Y17j2c8-15" value="" style="endArrow=diamondThin;endFill=0;endSize=24;html=1;rounded=1;entryX=1;entryY=0.5;entryDx=0;entryDy=0;exitX=0;exitY=0;exitDx=0;exitDy=0;" parent="WIyWlLk6GJQsqaUBKTNV-1" source="olz0WFhDpBD9glcPphKf-131" target="olz0WFhDpBD9glcPphKf-25" edge="1">
          <mxGeometry width="160" relative="1" as="geometry">
            <mxPoint x="637" y="270" as="sourcePoint" />
            <mxPoint x="537" y="410" as="targetPoint" />
            <Array as="points">
              <mxPoint x="540" y="370" />
              <mxPoint x="540" y="330" />
            </Array>
          </mxGeometry>
        </mxCell>
        <mxCell id="WIId0_cN_ajR0Y17j2c8-17" value="" style="endArrow=diamondThin;endFill=0;endSize=24;html=1;rounded=1;entryX=1;entryY=0.5;entryDx=0;entryDy=0;exitX=0;exitY=0;exitDx=0;exitDy=0;" parent="WIyWlLk6GJQsqaUBKTNV-1" source="olz0WFhDpBD9glcPphKf-106" target="olz0WFhDpBD9glcPphKf-26" edge="1">
          <mxGeometry width="160" relative="1" as="geometry">
            <mxPoint x="707" y="280" as="sourcePoint" />
            <mxPoint x="867" y="280" as="targetPoint" />
            <Array as="points">
              <mxPoint x="540" y="290" />
              <mxPoint x="540" y="307" />
            </Array>
          </mxGeometry>
        </mxCell>
        <mxCell id="WIId0_cN_ajR0Y17j2c8-19" value="" style="endArrow=diamondThin;endFill=1;endSize=24;html=1;rounded=1;entryX=1;entryY=0;entryDx=0;entryDy=0;exitX=0;exitY=0;exitDx=0;exitDy=0;" parent="WIyWlLk6GJQsqaUBKTNV-1" source="olz0WFhDpBD9glcPphKf-111" target="olz0WFhDpBD9glcPphKf-131" edge="1">
          <mxGeometry width="160" relative="1" as="geometry">
            <mxPoint x="997" y="800" as="sourcePoint" />
            <mxPoint x="1157" y="800" as="targetPoint" />
          </mxGeometry>
        </mxCell>
        <mxCell id="WIId0_cN_ajR0Y17j2c8-20" value="" style="endArrow=diamondThin;endFill=0;endSize=24;html=1;rounded=1;entryX=1;entryY=0.5;entryDx=0;entryDy=0;exitX=0;exitY=0;exitDx=0;exitDy=0;" parent="WIyWlLk6GJQsqaUBKTNV-1" source="olz0WFhDpBD9glcPphKf-100" target="olz0WFhDpBD9glcPphKf-107" edge="1">
          <mxGeometry width="160" relative="1" as="geometry">
            <mxPoint x="1070" y="440" as="sourcePoint" />
            <mxPoint x="1230" y="440" as="targetPoint" />
            <Array as="points" />
          </mxGeometry>
        </mxCell>
        <mxCell id="WIId0_cN_ajR0Y17j2c8-21" value="Game" style="swimlane;fontStyle=1;align=center;verticalAlign=top;childLayout=stackLayout;horizontal=1;startSize=26;horizontalStack=0;resizeParent=1;resizeParentMax=0;resizeLast=0;collapsible=1;marginBottom=0;" parent="WIyWlLk6GJQsqaUBKTNV-1" vertex="1">
          <mxGeometry x="1230" y="130" width="160" height="346" as="geometry">
            <mxRectangle x="1920" y="47" width="70" height="30" as="alternateBounds" />
          </mxGeometry>
        </mxCell>
        <mxCell id="WIId0_cN_ajR0Y17j2c8-22" value="UPS_SET: int" style="text;strokeColor=none;fillColor=none;align=left;verticalAlign=top;spacingLeft=4;spacingRight=4;overflow=hidden;rotatable=0;points=[[0,0.5],[1,0.5]];portConstraint=eastwest;" parent="WIId0_cN_ajR0Y17j2c8-21" vertex="1">
          <mxGeometry y="26" width="160" height="26" as="geometry" />
        </mxCell>
        <mxCell id="WIId0_cN_ajR0Y17j2c8-25" value="gameThread: Thread" style="text;strokeColor=none;fillColor=none;align=left;verticalAlign=top;spacingLeft=4;spacingRight=4;overflow=hidden;rotatable=0;points=[[0,0.5],[1,0.5]];portConstraint=eastwest;" parent="WIId0_cN_ajR0Y17j2c8-21" vertex="1">
          <mxGeometry y="52" width="160" height="26" as="geometry" />
        </mxCell>
        <mxCell id="WIId0_cN_ajR0Y17j2c8-26" value="gameStart: boolean" style="text;strokeColor=none;fillColor=none;align=left;verticalAlign=top;spacingLeft=4;spacingRight=4;overflow=hidden;rotatable=0;points=[[0,0.5],[1,0.5]];portConstraint=eastwest;" parent="WIId0_cN_ajR0Y17j2c8-21" vertex="1">
          <mxGeometry y="78" width="160" height="26" as="geometry" />
        </mxCell>
        <mxCell id="WIId0_cN_ajR0Y17j2c8-29" value="player1: Player" style="text;strokeColor=none;fillColor=none;align=left;verticalAlign=top;spacingLeft=4;spacingRight=4;overflow=hidden;rotatable=0;points=[[0,0.5],[1,0.5]];portConstraint=eastwest;" parent="WIId0_cN_ajR0Y17j2c8-21" vertex="1">
          <mxGeometry y="104" width="160" height="26" as="geometry" />
        </mxCell>
        <mxCell id="WIId0_cN_ajR0Y17j2c8-28" value="player2: Player" style="text;strokeColor=none;fillColor=none;align=left;verticalAlign=top;spacingLeft=4;spacingRight=4;overflow=hidden;rotatable=0;points=[[0,0.5],[1,0.5]];portConstraint=eastwest;" parent="WIId0_cN_ajR0Y17j2c8-21" vertex="1">
          <mxGeometry y="130" width="160" height="26" as="geometry" />
        </mxCell>
        <mxCell id="WIId0_cN_ajR0Y17j2c8-27" value="enemies: Enemies" style="text;strokeColor=none;fillColor=none;align=left;verticalAlign=top;spacingLeft=4;spacingRight=4;overflow=hidden;rotatable=0;points=[[0,0.5],[1,0.5]];portConstraint=eastwest;" parent="WIId0_cN_ajR0Y17j2c8-21" vertex="1">
          <mxGeometry y="156" width="160" height="26" as="geometry" />
        </mxCell>
        <mxCell id="WIId0_cN_ajR0Y17j2c8-30" value="bullets: Bullets" style="text;strokeColor=none;fillColor=none;align=left;verticalAlign=top;spacingLeft=4;spacingRight=4;overflow=hidden;rotatable=0;points=[[0,0.5],[1,0.5]];portConstraint=eastwest;" parent="WIId0_cN_ajR0Y17j2c8-21" vertex="1">
          <mxGeometry y="182" width="160" height="26" as="geometry" />
        </mxCell>
        <mxCell id="WIId0_cN_ajR0Y17j2c8-31" value="tileMap: TileMap" style="text;strokeColor=none;fillColor=none;align=left;verticalAlign=top;spacingLeft=4;spacingRight=4;overflow=hidden;rotatable=0;points=[[0,0.5],[1,0.5]];portConstraint=eastwest;" parent="WIId0_cN_ajR0Y17j2c8-21" vertex="1">
          <mxGeometry y="208" width="160" height="26" as="geometry" />
        </mxCell>
        <mxCell id="WIId0_cN_ajR0Y17j2c8-23" value="" style="line;strokeWidth=1;fillColor=none;align=left;verticalAlign=middle;spacingTop=-1;spacingLeft=3;spacingRight=3;rotatable=0;labelPosition=right;points=[];portConstraint=eastwest;strokeColor=inherit;" parent="WIId0_cN_ajR0Y17j2c8-21" vertex="1">
          <mxGeometry y="234" width="160" height="8" as="geometry" />
        </mxCell>
        <mxCell id="WIId0_cN_ajR0Y17j2c8-24" value="initClasses(): void" style="text;strokeColor=none;fillColor=none;align=left;verticalAlign=top;spacingLeft=4;spacingRight=4;overflow=hidden;rotatable=0;points=[[0,0.5],[1,0.5]];portConstraint=eastwest;" parent="WIId0_cN_ajR0Y17j2c8-21" vertex="1">
          <mxGeometry y="242" width="160" height="26" as="geometry" />
        </mxCell>
        <mxCell id="WIId0_cN_ajR0Y17j2c8-32" value="update(): void" style="text;strokeColor=none;fillColor=none;align=left;verticalAlign=top;spacingLeft=4;spacingRight=4;overflow=hidden;rotatable=0;points=[[0,0.5],[1,0.5]];portConstraint=eastwest;" parent="WIId0_cN_ajR0Y17j2c8-21" vertex="1">
          <mxGeometry y="268" width="160" height="26" as="geometry" />
        </mxCell>
        <mxCell id="WIId0_cN_ajR0Y17j2c8-33" value="display(): void" style="text;strokeColor=none;fillColor=none;align=left;verticalAlign=top;spacingLeft=4;spacingRight=4;overflow=hidden;rotatable=0;points=[[0,0.5],[1,0.5]];portConstraint=eastwest;" parent="WIId0_cN_ajR0Y17j2c8-21" vertex="1">
          <mxGeometry y="294" width="160" height="26" as="geometry" />
        </mxCell>
        <mxCell id="WIId0_cN_ajR0Y17j2c8-34" value="run(): void" style="text;strokeColor=none;fillColor=none;align=left;verticalAlign=top;spacingLeft=4;spacingRight=4;overflow=hidden;rotatable=0;points=[[0,0.5],[1,0.5]];portConstraint=eastwest;" parent="WIId0_cN_ajR0Y17j2c8-21" vertex="1">
          <mxGeometry y="320" width="160" height="26" as="geometry" />
        </mxCell>
        <mxCell id="WIId0_cN_ajR0Y17j2c8-35" value="" style="endArrow=diamondThin;endFill=1;endSize=24;html=1;rounded=1;entryX=0;entryY=0.5;entryDx=0;entryDy=0;exitX=1;exitY=0;exitDx=0;exitDy=0;" parent="WIyWlLk6GJQsqaUBKTNV-1" source="olz0WFhDpBD9glcPphKf-60" target="WIId0_cN_ajR0Y17j2c8-27" edge="1">
          <mxGeometry width="160" relative="1" as="geometry">
            <mxPoint x="1287" y="160" as="sourcePoint" />
            <mxPoint x="1447" y="160" as="targetPoint" />
            <Array as="points">
              <mxPoint x="1150" y="130" />
              <mxPoint x="1150" y="300" />
            </Array>
          </mxGeometry>
        </mxCell>
        <mxCell id="WIId0_cN_ajR0Y17j2c8-36" value="" style="endArrow=diamondThin;endFill=1;endSize=24;html=1;rounded=1;entryX=0;entryY=0.5;entryDx=0;entryDy=0;exitX=1;exitY=0;exitDx=0;exitDy=0;" parent="WIyWlLk6GJQsqaUBKTNV-1" source="olz0WFhDpBD9glcPphKf-32" target="WIId0_cN_ajR0Y17j2c8-29" edge="1">
          <mxGeometry width="160" relative="1" as="geometry">
            <mxPoint x="1287" y="-50" as="sourcePoint" />
            <mxPoint x="1447" y="-50" as="targetPoint" />
            <Array as="points">
              <mxPoint x="1170" y="190" />
              <mxPoint x="1170" y="247" />
            </Array>
          </mxGeometry>
        </mxCell>
        <mxCell id="WIId0_cN_ajR0Y17j2c8-37" value="" style="endArrow=diamondThin;endFill=1;endSize=24;html=1;rounded=1;entryX=0;entryY=0.5;entryDx=0;entryDy=0;exitX=1;exitY=0;exitDx=0;exitDy=0;" parent="WIyWlLk6GJQsqaUBKTNV-1" target="WIId0_cN_ajR0Y17j2c8-28" edge="1" source="olz0WFhDpBD9glcPphKf-32">
          <mxGeometry width="160" relative="1" as="geometry">
            <mxPoint x="1347" y="190" as="sourcePoint" />
            <mxPoint x="1537" y="430" as="targetPoint" />
            <Array as="points">
              <mxPoint x="1170" y="190" />
              <mxPoint x="1170" y="273" />
            </Array>
          </mxGeometry>
        </mxCell>
        <mxCell id="WIId0_cN_ajR0Y17j2c8-38" value="" style="endArrow=diamondThin;endFill=1;endSize=24;html=1;rounded=1;exitX=1;exitY=0;exitDx=0;exitDy=0;entryX=0;entryY=0.5;entryDx=0;entryDy=0;" parent="WIyWlLk6GJQsqaUBKTNV-1" source="olz0WFhDpBD9glcPphKf-68" target="WIId0_cN_ajR0Y17j2c8-31" edge="1">
          <mxGeometry width="160" relative="1" as="geometry">
            <mxPoint x="947" y="910" as="sourcePoint" />
            <mxPoint x="1477" y="780" as="targetPoint" />
            <Array as="points">
              <mxPoint x="1170" y="520" />
              <mxPoint x="1170" y="351" />
            </Array>
          </mxGeometry>
        </mxCell>
        <mxCell id="WIId0_cN_ajR0Y17j2c8-39" value="Bullet" style="swimlane;fontStyle=1;align=center;verticalAlign=top;childLayout=stackLayout;horizontal=1;startSize=26;horizontalStack=0;resizeParent=1;resizeParentMax=0;resizeLast=0;collapsible=1;marginBottom=0;" parent="WIyWlLk6GJQsqaUBKTNV-1" vertex="1" collapsed="1">
          <mxGeometry x="852" y="595" width="70" height="30" as="geometry">
            <mxRectangle x="1240" y="1200" width="160" height="190" as="alternateBounds" />
          </mxGeometry>
        </mxCell>
        <mxCell id="WIId0_cN_ajR0Y17j2c8-40" value="circle: PShape" style="text;strokeColor=none;fillColor=none;align=left;verticalAlign=top;spacingLeft=4;spacingRight=4;overflow=hidden;rotatable=0;points=[[0,0.5],[1,0.5]];portConstraint=eastwest;" parent="WIId0_cN_ajR0Y17j2c8-39" vertex="1">
          <mxGeometry y="26" width="160" height="26" as="geometry" />
        </mxCell>
        <mxCell id="WIId0_cN_ajR0Y17j2c8-47" value="speed: float" style="text;strokeColor=none;fillColor=none;align=left;verticalAlign=top;spacingLeft=4;spacingRight=4;overflow=hidden;rotatable=0;points=[[0,0.5],[1,0.5]];portConstraint=eastwest;" parent="WIId0_cN_ajR0Y17j2c8-39" vertex="1">
          <mxGeometry y="52" width="160" height="26" as="geometry" />
        </mxCell>
        <mxCell id="WIId0_cN_ajR0Y17j2c8-48" value="coll: Collider" style="text;strokeColor=none;fillColor=none;align=left;verticalAlign=top;spacingLeft=4;spacingRight=4;overflow=hidden;rotatable=0;points=[[0,0.5],[1,0.5]];portConstraint=eastwest;" parent="WIId0_cN_ajR0Y17j2c8-39" vertex="1">
          <mxGeometry y="78" width="160" height="26" as="geometry" />
        </mxCell>
        <mxCell id="WIId0_cN_ajR0Y17j2c8-41" value="" style="line;strokeWidth=1;fillColor=none;align=left;verticalAlign=middle;spacingTop=-1;spacingLeft=3;spacingRight=3;rotatable=0;labelPosition=right;points=[];portConstraint=eastwest;strokeColor=inherit;" parent="WIId0_cN_ajR0Y17j2c8-39" vertex="1">
          <mxGeometry y="104" width="160" height="8" as="geometry" />
        </mxCell>
        <mxCell id="WIId0_cN_ajR0Y17j2c8-42" value="move(): void" style="text;strokeColor=none;fillColor=none;align=left;verticalAlign=top;spacingLeft=4;spacingRight=4;overflow=hidden;rotatable=0;points=[[0,0.5],[1,0.5]];portConstraint=eastwest;" parent="WIId0_cN_ajR0Y17j2c8-39" vertex="1">
          <mxGeometry y="112" width="160" height="26" as="geometry" />
        </mxCell>
        <mxCell id="WIId0_cN_ajR0Y17j2c8-50" value="update(): void" style="text;strokeColor=none;fillColor=none;align=left;verticalAlign=top;spacingLeft=4;spacingRight=4;overflow=hidden;rotatable=0;points=[[0,0.5],[1,0.5]];portConstraint=eastwest;" parent="WIId0_cN_ajR0Y17j2c8-39" vertex="1">
          <mxGeometry y="138" width="160" height="26" as="geometry" />
        </mxCell>
        <mxCell id="WIId0_cN_ajR0Y17j2c8-51" value="display(): void" style="text;strokeColor=none;fillColor=none;align=left;verticalAlign=top;spacingLeft=4;spacingRight=4;overflow=hidden;rotatable=0;points=[[0,0.5],[1,0.5]];portConstraint=eastwest;" parent="WIId0_cN_ajR0Y17j2c8-39" vertex="1">
          <mxGeometry y="164" width="160" height="26" as="geometry" />
        </mxCell>
        <mxCell id="WIId0_cN_ajR0Y17j2c8-43" value="Bullets" style="swimlane;fontStyle=1;align=center;verticalAlign=top;childLayout=stackLayout;horizontal=1;startSize=26;horizontalStack=0;resizeParent=1;resizeParentMax=0;resizeLast=0;collapsible=1;marginBottom=0;" parent="WIyWlLk6GJQsqaUBKTNV-1" vertex="1" collapsed="1">
          <mxGeometry x="1006" y="595" width="80" height="30" as="geometry">
            <mxRectangle x="1494" y="1200" width="160" height="190" as="alternateBounds" />
          </mxGeometry>
        </mxCell>
        <mxCell id="WIId0_cN_ajR0Y17j2c8-44" value="bullets: ArrayList&lt;Bullet&gt;" style="text;strokeColor=none;fillColor=none;align=left;verticalAlign=top;spacingLeft=4;spacingRight=4;overflow=hidden;rotatable=0;points=[[0,0.5],[1,0.5]];portConstraint=eastwest;" parent="WIId0_cN_ajR0Y17j2c8-43" vertex="1">
          <mxGeometry y="26" width="160" height="26" as="geometry" />
        </mxCell>
        <mxCell id="WIId0_cN_ajR0Y17j2c8-45" value="" style="line;strokeWidth=1;fillColor=none;align=left;verticalAlign=middle;spacingTop=-1;spacingLeft=3;spacingRight=3;rotatable=0;labelPosition=right;points=[];portConstraint=eastwest;strokeColor=inherit;" parent="WIId0_cN_ajR0Y17j2c8-43" vertex="1">
          <mxGeometry y="52" width="160" height="8" as="geometry" />
        </mxCell>
        <mxCell id="WIId0_cN_ajR0Y17j2c8-46" value="addBullet(): void" style="text;strokeColor=none;fillColor=none;align=left;verticalAlign=top;spacingLeft=4;spacingRight=4;overflow=hidden;rotatable=0;points=[[0,0.5],[1,0.5]];portConstraint=eastwest;" parent="WIId0_cN_ajR0Y17j2c8-43" vertex="1">
          <mxGeometry y="60" width="160" height="26" as="geometry" />
        </mxCell>
        <mxCell id="WIId0_cN_ajR0Y17j2c8-53" value="removeBullet(): void" style="text;strokeColor=none;fillColor=none;align=left;verticalAlign=top;spacingLeft=4;spacingRight=4;overflow=hidden;rotatable=0;points=[[0,0.5],[1,0.5]];portConstraint=eastwest;" parent="WIId0_cN_ajR0Y17j2c8-43" vertex="1">
          <mxGeometry y="86" width="160" height="26" as="geometry" />
        </mxCell>
        <mxCell id="WIId0_cN_ajR0Y17j2c8-54" value="deleteOffScreen(): void" style="text;strokeColor=none;fillColor=none;align=left;verticalAlign=top;spacingLeft=4;spacingRight=4;overflow=hidden;rotatable=0;points=[[0,0.5],[1,0.5]];portConstraint=eastwest;" parent="WIId0_cN_ajR0Y17j2c8-43" vertex="1">
          <mxGeometry y="112" width="160" height="26" as="geometry" />
        </mxCell>
        <mxCell id="WIId0_cN_ajR0Y17j2c8-55" value="update(): void" style="text;strokeColor=none;fillColor=none;align=left;verticalAlign=top;spacingLeft=4;spacingRight=4;overflow=hidden;rotatable=0;points=[[0,0.5],[1,0.5]];portConstraint=eastwest;" parent="WIId0_cN_ajR0Y17j2c8-43" vertex="1">
          <mxGeometry y="138" width="160" height="26" as="geometry" />
        </mxCell>
        <mxCell id="WIId0_cN_ajR0Y17j2c8-56" value="display(): void" style="text;strokeColor=none;fillColor=none;align=left;verticalAlign=top;spacingLeft=4;spacingRight=4;overflow=hidden;rotatable=0;points=[[0,0.5],[1,0.5]];portConstraint=eastwest;" parent="WIId0_cN_ajR0Y17j2c8-43" vertex="1">
          <mxGeometry y="164" width="160" height="26" as="geometry" />
        </mxCell>
        <mxCell id="WIId0_cN_ajR0Y17j2c8-49" value="Extends" style="endArrow=block;endSize=16;endFill=0;html=1;rounded=1;exitX=0;exitY=0;exitDx=0;exitDy=0;entryX=1;entryY=1;entryDx=0;entryDy=0;" parent="WIyWlLk6GJQsqaUBKTNV-1" source="WIId0_cN_ajR0Y17j2c8-39" target="olz0WFhDpBD9glcPphKf-0" edge="1">
          <mxGeometry width="160" relative="1" as="geometry">
            <mxPoint x="287" y="840" as="sourcePoint" />
            <mxPoint x="217" y="240" as="targetPoint" />
            <Array as="points">
              <mxPoint x="180" y="600" />
            </Array>
          </mxGeometry>
        </mxCell>
        <mxCell id="WIId0_cN_ajR0Y17j2c8-57" value="" style="endArrow=diamondThin;endFill=1;endSize=24;html=1;rounded=1;entryX=0;entryY=0;entryDx=0;entryDy=0;exitX=1;exitY=0;exitDx=0;exitDy=0;" parent="WIyWlLk6GJQsqaUBKTNV-1" source="WIId0_cN_ajR0Y17j2c8-39" target="WIId0_cN_ajR0Y17j2c8-43" edge="1">
          <mxGeometry width="160" relative="1" as="geometry">
            <mxPoint x="59" y="581" as="sourcePoint" />
            <mxPoint x="219" y="581" as="targetPoint" />
            <Array as="points" />
          </mxGeometry>
        </mxCell>
        <mxCell id="WIId0_cN_ajR0Y17j2c8-58" value="" style="endArrow=diamondThin;endFill=1;endSize=24;html=1;rounded=1;exitX=1;exitY=0;exitDx=0;exitDy=0;entryX=0;entryY=0.5;entryDx=0;entryDy=0;" parent="WIyWlLk6GJQsqaUBKTNV-1" source="WIId0_cN_ajR0Y17j2c8-43" target="WIId0_cN_ajR0Y17j2c8-30" edge="1">
          <mxGeometry width="160" relative="1" as="geometry">
            <mxPoint x="957" y="1220" as="sourcePoint" />
            <mxPoint x="1517" y="570" as="targetPoint" />
            <Array as="points">
              <mxPoint x="1150" y="595" />
              <mxPoint x="1150" y="325" />
            </Array>
          </mxGeometry>
        </mxCell>
        <mxCell id="WIId0_cN_ajR0Y17j2c8-59" value="" style="endArrow=diamondThin;endFill=1;endSize=24;html=1;rounded=1;entryX=0;entryY=0;entryDx=0;entryDy=0;exitX=1;exitY=0;exitDx=0;exitDy=0;" parent="WIyWlLk6GJQsqaUBKTNV-1" source="olz0WFhDpBD9glcPphKf-64" target="olz0WFhDpBD9glcPphKf-68" edge="1">
          <mxGeometry width="160" relative="1" as="geometry">
            <mxPoint x="312" y="589" as="sourcePoint" />
            <mxPoint x="472" y="589" as="targetPoint" />
            <Array as="points" />
          </mxGeometry>
        </mxCell>
        <mxCell id="WIId0_cN_ajR0Y17j2c8-63" value="" style="endArrow=diamondThin;endFill=0;endSize=24;html=1;rounded=1;entryX=0;entryY=0.5;entryDx=0;entryDy=0;exitX=1;exitY=0;exitDx=0;exitDy=0;" parent="WIyWlLk6GJQsqaUBKTNV-1" source="CaDb665-S-PONLKA3MEE-1" target="olz0WFhDpBD9glcPphKf-65" edge="1">
          <mxGeometry width="160" relative="1" as="geometry">
            <mxPoint x="730" y="1080" as="sourcePoint" />
            <mxPoint x="890" y="1080" as="targetPoint" />
            <Array as="points">
              <mxPoint x="750" y="450" />
              <mxPoint x="770" y="450" />
              <mxPoint x="770" y="535" />
            </Array>
          </mxGeometry>
        </mxCell>
        <mxCell id="WIId0_cN_ajR0Y17j2c8-64" value="" style="endArrow=diamondThin;endFill=0;endSize=24;html=1;rounded=1;entryX=0;entryY=0.5;entryDx=0;entryDy=0;exitX=1;exitY=0;exitDx=0;exitDy=0;" parent="WIyWlLk6GJQsqaUBKTNV-1" source="CaDb665-S-PONLKA3MEE-1" target="WIId0_cN_ajR0Y17j2c8-48" edge="1">
          <mxGeometry width="160" relative="1" as="geometry">
            <mxPoint x="870" y="1060" as="sourcePoint" />
            <mxPoint x="1030" y="1060" as="targetPoint" />
            <Array as="points">
              <mxPoint x="750" y="450" />
              <mxPoint x="750" y="610" />
              <mxPoint x="830" y="610" />
            </Array>
          </mxGeometry>
        </mxCell>
        <mxCell id="WIId0_cN_ajR0Y17j2c8-65" value="InputManager" style="swimlane;fontStyle=1;align=center;verticalAlign=top;childLayout=stackLayout;horizontal=1;startSize=26;horizontalStack=0;resizeParent=1;resizeParentMax=0;resizeLast=0;collapsible=1;marginBottom=0;" parent="WIyWlLk6GJQsqaUBKTNV-1" vertex="1" collapsed="1">
          <mxGeometry x="840" y="205" width="120" height="30" as="geometry">
            <mxRectangle x="1240" y="360" width="160" height="320" as="alternateBounds" />
          </mxGeometry>
        </mxCell>
        <mxCell id="WIId0_cN_ajR0Y17j2c8-66" value="left: int" style="text;strokeColor=none;fillColor=none;align=left;verticalAlign=top;spacingLeft=4;spacingRight=4;overflow=hidden;rotatable=0;points=[[0,0.5],[1,0.5]];portConstraint=eastwest;" parent="WIId0_cN_ajR0Y17j2c8-65" vertex="1">
          <mxGeometry y="26" width="160" height="26" as="geometry" />
        </mxCell>
        <mxCell id="WIId0_cN_ajR0Y17j2c8-69" value="right: int" style="text;strokeColor=none;fillColor=none;align=left;verticalAlign=top;spacingLeft=4;spacingRight=4;overflow=hidden;rotatable=0;points=[[0,0.5],[1,0.5]];portConstraint=eastwest;" parent="WIId0_cN_ajR0Y17j2c8-65" vertex="1">
          <mxGeometry y="52" width="160" height="26" as="geometry" />
        </mxCell>
        <mxCell id="WIId0_cN_ajR0Y17j2c8-70" value="jump: int" style="text;strokeColor=none;fillColor=none;align=left;verticalAlign=top;spacingLeft=4;spacingRight=4;overflow=hidden;rotatable=0;points=[[0,0.5],[1,0.5]];portConstraint=eastwest;" parent="WIId0_cN_ajR0Y17j2c8-65" vertex="1">
          <mxGeometry y="78" width="160" height="26" as="geometry" />
        </mxCell>
        <mxCell id="WIId0_cN_ajR0Y17j2c8-71" value="fire: int" style="text;strokeColor=none;fillColor=none;align=left;verticalAlign=top;spacingLeft=4;spacingRight=4;overflow=hidden;rotatable=0;points=[[0,0.5],[1,0.5]];portConstraint=eastwest;" parent="WIId0_cN_ajR0Y17j2c8-65" vertex="1">
          <mxGeometry y="104" width="160" height="26" as="geometry" />
        </mxCell>
        <mxCell id="WIId0_cN_ajR0Y17j2c8-72" value="keyList: ArrayList&lt;int&gt;" style="text;strokeColor=none;fillColor=none;align=left;verticalAlign=top;spacingLeft=4;spacingRight=4;overflow=hidden;rotatable=0;points=[[0,0.5],[1,0.5]];portConstraint=eastwest;" parent="WIId0_cN_ajR0Y17j2c8-65" vertex="1">
          <mxGeometry y="130" width="160" height="26" as="geometry" />
        </mxCell>
        <mxCell id="WIId0_cN_ajR0Y17j2c8-67" value="" style="line;strokeWidth=1;fillColor=none;align=left;verticalAlign=middle;spacingTop=-1;spacingLeft=3;spacingRight=3;rotatable=0;labelPosition=right;points=[];portConstraint=eastwest;strokeColor=inherit;" parent="WIId0_cN_ajR0Y17j2c8-65" vertex="1">
          <mxGeometry y="156" width="160" height="8" as="geometry" />
        </mxCell>
        <mxCell id="WIId0_cN_ajR0Y17j2c8-68" value="getKeyList(): ArrayList&lt;int&gt;" style="text;strokeColor=none;fillColor=none;align=left;verticalAlign=top;spacingLeft=4;spacingRight=4;overflow=hidden;rotatable=0;points=[[0,0.5],[1,0.5]];portConstraint=eastwest;" parent="WIId0_cN_ajR0Y17j2c8-65" vertex="1">
          <mxGeometry y="164" width="160" height="26" as="geometry" />
        </mxCell>
        <mxCell id="WIId0_cN_ajR0Y17j2c8-73" value="getKey(int): int" style="text;strokeColor=none;fillColor=none;align=left;verticalAlign=top;spacingLeft=4;spacingRight=4;overflow=hidden;rotatable=0;points=[[0,0.5],[1,0.5]];portConstraint=eastwest;" parent="WIId0_cN_ajR0Y17j2c8-65" vertex="1">
          <mxGeometry y="190" width="160" height="26" as="geometry" />
        </mxCell>
        <mxCell id="WIId0_cN_ajR0Y17j2c8-74" value="getKey(): int" style="text;strokeColor=none;fillColor=none;align=left;verticalAlign=top;spacingLeft=4;spacingRight=4;overflow=hidden;rotatable=0;points=[[0,0.5],[1,0.5]];portConstraint=eastwest;" parent="WIId0_cN_ajR0Y17j2c8-65" vertex="1">
          <mxGeometry y="216" width="160" height="26" as="geometry" />
        </mxCell>
        <mxCell id="WIId0_cN_ajR0Y17j2c8-75" value="appendKey(int): void" style="text;strokeColor=none;fillColor=none;align=left;verticalAlign=top;spacingLeft=4;spacingRight=4;overflow=hidden;rotatable=0;points=[[0,0.5],[1,0.5]];portConstraint=eastwest;" parent="WIId0_cN_ajR0Y17j2c8-65" vertex="1">
          <mxGeometry y="242" width="160" height="26" as="geometry" />
        </mxCell>
        <mxCell id="WIId0_cN_ajR0Y17j2c8-76" value="removeKey(int): void" style="text;strokeColor=none;fillColor=none;align=left;verticalAlign=top;spacingLeft=4;spacingRight=4;overflow=hidden;rotatable=0;points=[[0,0.5],[1,0.5]];portConstraint=eastwest;" parent="WIId0_cN_ajR0Y17j2c8-65" vertex="1">
          <mxGeometry y="268" width="160" height="26" as="geometry" />
        </mxCell>
        <mxCell id="WIId0_cN_ajR0Y17j2c8-77" value="isValidKey(int): boolean" style="text;strokeColor=none;fillColor=none;align=left;verticalAlign=top;spacingLeft=4;spacingRight=4;overflow=hidden;rotatable=0;points=[[0,0.5],[1,0.5]];portConstraint=eastwest;" parent="WIId0_cN_ajR0Y17j2c8-65" vertex="1">
          <mxGeometry y="294" width="160" height="26" as="geometry" />
        </mxCell>
        <mxCell id="WIId0_cN_ajR0Y17j2c8-79" value="" style="endArrow=diamondThin;endFill=0;endSize=24;html=1;rounded=1;entryX=0;entryY=0.5;entryDx=0;entryDy=0;exitX=1;exitY=0;exitDx=0;exitDy=0;" parent="WIyWlLk6GJQsqaUBKTNV-1" source="WIId0_cN_ajR0Y17j2c8-65" target="WIId0_cN_ajR0Y17j2c8-78" edge="1">
          <mxGeometry width="160" relative="1" as="geometry">
            <mxPoint x="676" y="400" as="sourcePoint" />
            <mxPoint x="836" y="400" as="targetPoint" />
          </mxGeometry>
        </mxCell>
      </root>
    </mxGraphModel>
  </diagram>
</mxfile>
